<svg width="28" height="40" viewBox="0 0 28 40" fill="none" xmlns="http://www.w3.org/2000/svg">
<path fill-rule="evenodd" clip-rule="evenodd" d="M22.7324 0.241434C23.4516 -0.0451041 24.2299 -0.0770671 25.0366 0.148089C25.9685 0.408205 26.6854 0.938664 27.1773 1.67992C27.6558 2.40095 27.8867 3.26729 27.9664 4.16812C28.1244 5.95294 27.7084 8.1175 27.0707 10.2482C25.9257 14.0744 23.9628 18.1186 22.6741 20.3861C25.1092 22.5065 26.9304 25.7318 27.1782 30.2282C27.3092 32.6053 26.7523 34.4727 25.7242 35.9074C24.7055 37.3292 23.2828 38.2447 21.8132 38.8372C18.9285 40.0002 15.6449 40.0001 14.1971 40H14.1333C12.6835 40.0001 9.25438 40.0002 6.23975 38.8431C4.70818 38.2553 3.21762 37.3451 2.15388 35.9237C1.07674 34.4843 0.500959 32.6052 0.668166 30.2138C0.973685 25.8442 2.84336 22.606 5.36203 20.4494C4.08141 18.2072 2.11012 14.1611 0.951635 10.3226C0.304529 8.17856 -0.121148 5.99776 0.0308659 4.19952C0.107569 3.29217 0.336177 2.41911 0.814473 1.6924C1.30641 0.944956 2.0259 0.409774 2.96343 0.148089C3.77311 -0.0779082 4.55409 -0.0448083 5.27517 0.244457C5.98249 0.528202 6.56569 1.03123 7.04534 1.63858C7.98861 2.83295 8.64705 4.57846 9.12203 6.48243C9.97004 9.88174 10.3163 14.1434 10.4161 17.7176C11.6748 17.3459 12.9482 17.163 14.1638 17.163C15.2488 17.163 16.4143 17.3206 17.5858 17.6515C17.6884 14.0771 18.0379 9.82668 18.8884 6.44097C19.364 4.54741 20.0226 2.81223 20.965 1.62549C21.4444 1.02193 22.0267 0.522589 22.7324 0.241434ZM20.7577 6.91799C19.8553 10.5102 19.5352 15.243 19.4862 19.004L19.468 20.4083L18.1706 19.8962C16.7971 19.354 15.402 19.1065 14.1638 19.1065C12.7801 19.1065 11.2835 19.3881 9.8388 19.9741L8.53184 20.5043L8.51476 19.0844C8.46954 15.325 8.1535 10.5703 7.25195 6.95638C6.79755 5.13487 6.22042 3.71478 5.53668 2.84903C5.20284 2.42631 4.87467 2.17565 4.56212 2.05027C4.26333 1.93041 3.91592 1.89895 3.47805 2.02117C2.97742 2.16091 2.65042 2.41875 2.42134 2.76681C2.17862 3.13559 2.0117 3.66052 1.95219 4.36452C1.83177 5.789 2.17091 7.68437 2.79645 9.757C4.04017 13.8779 6.28926 18.2989 7.44062 20.1692L7.90831 20.929L7.196 21.4619C4.77549 23.2728 2.88362 26.1751 2.59168 30.3504C2.45312 32.3321 2.92964 33.7328 3.69333 34.7533C4.47041 35.7916 5.6092 36.5214 6.92598 37.0268C9.58671 38.048 12.703 38.0564 14.1638 38.0564C15.626 38.0564 18.5807 38.0472 21.097 37.0327C22.339 36.5319 23.4171 35.8076 24.161 34.7695C24.8955 33.7444 25.3629 32.332 25.2529 30.336C25.0143 26.0068 23.155 23.1438 20.8406 21.3915L20.1383 20.8597L20.5984 20.1055C21.7693 18.1861 23.9998 13.7794 25.2246 9.68693C25.8407 7.62831 26.1705 5.75053 26.0458 4.34077C25.9841 3.64431 25.8166 3.12531 25.5745 2.76054C25.3459 2.41599 25.02 2.16018 24.5219 2.02117C24.0855 1.89936 23.7391 1.93025 23.4413 2.04892C23.1299 2.17297 22.8031 2.42119 22.4704 2.84006C21.7889 3.69819 21.2125 5.10741 20.7577 6.91799Z" fill="black"/>
</svg>
