<svg width="15" height="16" viewBox="0 0 15 16" fill="none" xmlns="http://www.w3.org/2000/svg">
<path d="M2.16912 12.9323L2.26059 13.5548C2.28533 13.7231 2.16492 13.8746 1.99849 13.8977L1.99837 13.8977C1.98388 13.8997 1.9694 13.9007 1.95499 13.9007C1.80609 13.9007 1.67238 13.7941 1.64988 13.6412L1.64988 13.6412L1.40316 11.9622L1.40315 11.9621C1.38773 11.857 1.42953 11.7525 1.51187 11.6857C1.51188 11.6857 1.51189 11.6857 1.51189 11.6857L1.5749 11.7633C1.63036 11.7183 1.7059 11.7045 1.77442 11.7267L2.16912 12.9323ZM2.16912 12.9323C2.73674 13.5084 3.40489 13.992 4.13444 14.3503C5.14753 14.8478 6.24083 15.1 7.38318 15.1C9.30977 15.1 11.1221 14.3704 12.4853 13.0452L12.4196 12.9777L12.4853 13.0452C13.8485 11.7199 14.6 9.95669 14.6 8.08116C14.6 7.02848 14.3661 6.01575 13.9048 5.07187M2.16912 12.9323L13.9048 5.07187M13.9048 5.07187C13.8308 4.92038 13.6472 4.85875 13.4953 4.92886L13.4953 4.92886C13.3418 4.99969 13.2737 5.18058 13.3485 5.33362L13.3485 5.33364C13.7696 6.1953 13.983 7.11946 13.983 8.08116C13.983 9.79353 13.2973 11.4035 12.051 12.6152C10.8045 13.827 9.14715 14.4946 7.38318 14.4946C6.33693 14.4946 5.33705 14.2639 4.41059 13.8089C3.75494 13.4869 3.15301 13.0544 2.63962 12.5395L13.9048 5.07187Z" fill="black" stroke="black" stroke-width="0.2"/>
<path d="M1.50475 11.0711C1.6581 11.0003 1.7263 10.8194 1.65153 10.6664L1.65153 10.6663C1.23044 9.80468 1.017 8.88053 1.017 7.91883C1.017 6.20646 1.70265 4.59654 2.94902 3.38483C4.19549 2.17303 5.85282 1.5054 7.61679 1.5054C9.42692 1.5054 11.1215 2.21133 12.3613 3.46082L12.8306 3.06571M1.50475 11.0711L1.46282 10.9803L1.50478 11.0711C1.50477 11.0711 1.50476 11.0711 1.50475 11.0711ZM1.50475 11.0711C1.46238 11.0907 1.41757 11.1 1.3735 11.1C1.25987 11.1 1.14874 11.0378 1.09517 10.9281C0.633948 9.98424 0.4 8.97151 0.4 7.91883C0.4 6.04329 1.15153 4.2801 2.51473 2.95476L2.51474 2.95476C3.8779 1.62956 5.69021 0.9 7.61679 0.9C9.6073 0.9 11.4721 1.68166 12.8306 3.06571M12.8306 3.06571L12.7394 2.4452C12.7147 2.2769 12.8351 2.12541 13.0015 2.10229L13.0016 2.10228C13.1672 2.07932 13.3255 2.19108 13.3501 2.35879L13.2512 2.37333L13.3501 2.35879L13.5968 4.03783L13.5968 4.03785C13.6123 4.14297 13.5705 4.24748 13.4881 4.31431C13.4881 4.31431 13.4881 4.31431 13.4881 4.31431L12.8306 3.06571Z" fill="black" stroke="black" stroke-width="0.2"/>
</svg>
