<svg width="40" height="40" viewBox="0 0 40 40" fill="none" xmlns="http://www.w3.org/2000/svg">
<g clip-path="url(#clip0_1306_2794)">
<rect x="21.5268" y="15.3256" width="1.11507" height="25.4383" rx="0.557533" transform="rotate(30 21.5268 15.3256)" fill="black" stroke="black"/>
<path fill-rule="evenodd" clip-rule="evenodd" d="M29.7239 2.33631L29.9642 3.55118C30.4326 5.91992 30.891 9.84688 30.7622 14.0075C30.6342 18.1448 29.9223 22.6538 27.9419 26.084C23.9842 32.939 18.273 33.2894 15.6755 32.4107L16.3532 30.4072C18.0123 30.9684 22.6652 30.9933 26.1102 25.0265C27.8312 22.0457 28.524 17.9528 28.6481 13.9421C28.7507 10.6282 28.4627 7.46638 28.1098 5.21483C24.4911 6.72172 17.8579 10.1262 13.056 14.7722C10.542 17.2046 9.90695 19.8983 10.1032 22.3025C10.3032 24.7533 11.3737 26.9177 12.2819 28.1316L10.5883 29.3986C9.48622 27.9255 8.23303 25.3901 7.99509 22.4746C7.75336 19.5124 8.56617 16.1733 11.5853 13.2522C17.263 7.75878 25.2552 3.98 28.5617 2.76381L29.7239 2.33631Z" fill="black"/>
</g>
<defs>
<clipPath id="clip0_1306_2794">
<rect width="40" height="40" fill="white"/>
</clipPath>
</defs>
</svg>
